# xmcd
#
# Track frame offsets:
#	150
#	21517
#	38043
#	62773
#	91449
#	129597
#
# Disc length: 2617 seconds
# Revision: 0
# Processed by: cddbd v1.5.2PL0 Copyright (c) Steve Scherf et al.
# Submitted via: dBpowerAMP V12.0
#
DISCID=4d0a3706
DTITLE=Various Artist - Guys With Guitars
DYEAR=2004
DGENRE=Blues
TTITLE0=Big Mama Fitzgerald and Bob "Wheat" Long - Straight Ahead
TTITLE1=Big Mama Fitzgerald and Bob "Wheat" Long - Killing Floor
TTITLE2=Ray Francis - Lenny
TTITLE3=Ray Francis - Hallelujah
TTITLE4=Silent Bear - Spanish Castle Magic/Come Together
TTITLE5=Big Mama Fitzgerald/Bob "Wheat" Long/Ray Francis/Silent Bear - Promised Land
EXTD=
EXTT0=
EXTT1=
EXTT2=
EXTT3=
EXTT4=
EXTT5=
PLAYORDER=
